<svg xmlns="http://www.w3.org/2000/svg" viewBox="0 0 560 240" width="560" height="240">
  <defs>
    <marker id="arrow" markerWidth="10" markerHeight="7" refX="9" refY="3.5" orient="auto">
      <polygon points="0 0, 10 3.5, 0 7" fill="#333"/>
    </marker>
  </defs>

  <!-- ── Time axis at top ── -->
  <line x1="130" y1="18" x2="490" y2="18" stroke="#555" stroke-width="1.4" marker-end="url(#arrow)"/>
  <text x="300" y="13" text-anchor="middle" font-family="Ubuntu Mono, monospace" font-size="12" fill="#555">time</text>

  <!-- ── Column time labels ── -->
  <text x="162" y="34" text-anchor="middle" font-family="Ubuntu Mono, monospace" font-size="10" fill="#888">t₁</text>
  <text x="232" y="34" text-anchor="middle" font-family="Ubuntu Mono, monospace" font-size="10" fill="#888">t₂</text>
  <text x="302" y="34" text-anchor="middle" font-family="Ubuntu Mono, monospace" font-size="10" fill="#888">t₃</text>
  <text x="372" y="34" text-anchor="middle" font-family="Ubuntu Mono, monospace" font-size="10" fill="#888">t₄</text>
  <text x="432" y="34" text-anchor="middle" font-family="Ubuntu Mono, monospace" font-size="10" fill="#888">···</text>

  <!-- ── Group 1 bracket ── -->
  <line x1="22" y1="58"  x2="22" y2="140" stroke="#333" stroke-width="1.5"/>
  <line x1="22" y1="58"  x2="32" y2="58"  stroke="#333" stroke-width="1.5"/>
  <line x1="22" y1="140" x2="32" y2="140" stroke="#333" stroke-width="1.5"/>
  <text x="2" y="103" font-family="Ubuntu Mono, monospace" font-size="11" fill="#333" writing-mode="tb" transform="rotate(-90,14,103)">Group 1</text>

  <!-- Individual 1 (Group 1) — row y=70 -->
  <text x="38" y="74" font-family="Ubuntu Mono, monospace" font-size="11" fill="#333">Ind 1</text>
  <circle cx="162" cy="70" r="5" fill="#4a90d9" stroke="#2a70b9" stroke-width="1"/>
  <circle cx="232" cy="66" r="5" fill="#4a90d9" stroke="#2a70b9" stroke-width="1"/>
  <circle cx="302" cy="73" r="5" fill="#4a90d9" stroke="#2a70b9" stroke-width="1"/>
  <circle cx="372" cy="68" r="5" fill="#4a90d9" stroke="#2a70b9" stroke-width="1"/>
  <!-- Connecting line (within-individual correlation) -->
  <polyline points="162,70 232,66 302,73 372,68" fill="none" stroke="#4a90d9" stroke-width="1.2" stroke-dasharray="4 2"/>
  <text x="395" y="74" font-family="Ubuntu Mono, monospace" font-size="10" fill="#888">···</text>

  <!-- Individual 2 (Group 1) — row y=120 -->
  <text x="38" y="124" font-family="Ubuntu Mono, monospace" font-size="11" fill="#333">Ind 2</text>
  <circle cx="162" cy="120" r="5" fill="#4a90d9" stroke="#2a70b9" stroke-width="1"/>
  <circle cx="232" cy="116" r="5" fill="#4a90d9" stroke="#2a70b9" stroke-width="1"/>
  <circle cx="302" cy="123" r="5" fill="#4a90d9" stroke="#2a70b9" stroke-width="1"/>
  <circle cx="372" cy="118" r="5" fill="#4a90d9" stroke="#2a70b9" stroke-width="1"/>
  <polyline points="162,120 232,116 302,123 372,118" fill="none" stroke="#4a90d9" stroke-width="1.2" stroke-dasharray="4 2"/>
  <text x="395" y="124" font-family="Ubuntu Mono, monospace" font-size="10" fill="#888">···</text>

  <!-- ── Group 2 bracket ── -->
  <line x1="22" y1="158" x2="22" y2="240" stroke="#333" stroke-width="1.5"/>
  <line x1="22" y1="158" x2="32" y2="158" stroke="#333" stroke-width="1.5"/>
  <line x1="22" y1="240" x2="32" y2="240" stroke="#333" stroke-width="1.5"/>
  <text x="2" y="203" font-family="Ubuntu Mono, monospace" font-size="11" fill="#333" writing-mode="tb" transform="rotate(-90,14,203)">Group 2</text>

  <!-- Individual 3 (Group 2) — row y=170 -->
  <text x="38" y="174" font-family="Ubuntu Mono, monospace" font-size="11" fill="#333">Ind 3</text>
  <circle cx="162" cy="170" r="5" fill="#e07b3a" stroke="#c05b1a" stroke-width="1"/>
  <circle cx="232" cy="174" r="5" fill="#e07b3a" stroke="#c05b1a" stroke-width="1"/>
  <circle cx="302" cy="168" r="5" fill="#e07b3a" stroke="#c05b1a" stroke-width="1"/>
  <circle cx="372" cy="172" r="5" fill="#e07b3a" stroke="#c05b1a" stroke-width="1"/>
  <polyline points="162,170 232,174 302,168 372,172" fill="none" stroke="#e07b3a" stroke-width="1.2" stroke-dasharray="4 2"/>
  <text x="395" y="174" font-family="Ubuntu Mono, monospace" font-size="10" fill="#888">···</text>

  <!-- Individual 4 (Group 2) — row y=220 -->
  <text x="38" y="224" font-family="Ubuntu Mono, monospace" font-size="11" fill="#333">Ind 4</text>
  <circle cx="162" cy="220" r="5" fill="#e07b3a" stroke="#c05b1a" stroke-width="1"/>
  <circle cx="232" cy="216" r="5" fill="#e07b3a" stroke="#c05b1a" stroke-width="1"/>
  <circle cx="302" cy="223" r="5" fill="#e07b3a" stroke="#c05b1a" stroke-width="1"/>
  <circle cx="372" cy="218" r="5" fill="#e07b3a" stroke="#c05b1a" stroke-width="1"/>
  <polyline points="162,220 232,216 302,223 372,218" fill="none" stroke="#e07b3a" stroke-width="1.2" stroke-dasharray="4 2"/>
  <text x="395" y="224" font-family="Ubuntu Mono, monospace" font-size="10" fill="#888">···</text>

  <!-- ── "Serial Effects" callout ── -->
  <text x="490" y="96"  font-family="Ubuntu Mono, monospace" font-size="13" fill="#c0392b" font-weight="bold">Serial</text>
  <text x="490" y="112" font-family="Ubuntu Mono, monospace" font-size="13" fill="#c0392b" font-weight="bold">Effects</text>
  <!-- Brace lines from callout toward rows -->
  <line x1="488" y1="95"  x2="415" y2="70"  stroke="#c0392b" stroke-width="1" stroke-dasharray="3 2"/>
  <line x1="488" y1="95"  x2="415" y2="120" stroke="#c0392b" stroke-width="1" stroke-dasharray="3 2"/>
  <line x1="488" y1="112" x2="415" y2="170" stroke="#c0392b" stroke-width="1" stroke-dasharray="3 2"/>
  <line x1="488" y1="112" x2="415" y2="220" stroke="#c0392b" stroke-width="1" stroke-dasharray="3 2"/>
</svg>
